# xmcd
#
# Track frame offsets:
#	150
#	14605
#	37069
#	59603
#	73732
#	110985
#	126911
#	147349
#	165639
#	187946
#	204273
#	234130
#
# Disc length: 3338 seconds
# Revision: 0
# Processed by: cddbd v1.5.2PL0 Copyright (c) Steve Scherf et al.
# Submitted via: dBpowerAMP V12.0
#
DISCID=b10d080c
DTITLE=John Cee Stannard and Blues Horizon - Stone Cold Sober
DYEAR=2014
DGENRE=Blues
TTITLE0=I Dont Want You Anymore
TTITLE1=Don't You Worry None 'Bout Me
TTITLE2=The Story
TTITLE3=Rum Ol' Do
TTITLE4=So Long
TTITLE5=Lead Hearted Blues
TTITLE6=Stone Cold Sober
TTITLE7=Poverty Blues
TTITLE8=Right Back At The Start
TTITLE9=Worse Off Than You
TTITLE10=Dream The Blues
TTITLE11=This Rag Of Mine
EXTD=
EXTT0=
EXTT1=
EXTT2=
EXTT3=
EXTT4=
EXTT5=
EXTT6=
EXTT7=
EXTT8=
EXTT9=
EXTT10=
EXTT11=
PLAYORDER=
